PathFileType	4	(X/Y/Z)	D:\TRACE\spotREDO_2-26-24\spot_Both_Motion_1_4-v60.trc
DataRate	CameraRate	NumFrames	NumMarkers	Units	OrigDataRate	OrigDataStartFrame	OrigNumFrames
100.00	100.00	      38	9	mm	100.00	2626	      7000
Frame#	Time	front left toe			Front right toe			aft left toe			aft right toe			Arm			FL body			FR body			AL Body			AR Body			
		X1	Y1	Z1	X2	Y2	Z2	X3	Y3	Z3	X4	Y4	Z4	X5	Y5	Z5	X6	Y6	Z6	X7	Y7	Z7	X8	Y8	Z8	X9	Y9	Z9	

2626	26.250	-273.35654	84.18784	-469.37411	173.10355	21.33258	-313.21869	-376.17395	18.74685	107.40295	57.23013	25.32393	165.58884	-73.90983	721.16748	-749.97076	-150.59138	588.07166	-450.66220	3.16697	595.41315	-426.67099	-292.92670	553.01801	421.34393	-153.01854	559.34814	445.05530	
2627	26.260	-274.90317	73.04408	-468.23663	173.48459	21.49582	-313.63394	-375.49915	18.85844	107.30399	58.76129	25.22590	165.61711	-73.71793	722.16052	-750.18604	-151.71826	588.19788	-451.57346	2.09599	595.29639	-427.70523	-292.63409	553.15454	420.82047	-152.93092	559.67676	444.34042	
2628	26.270	-276.29712	62.06149	-467.16531	173.89215	21.61073	-313.91318	-374.52872	18.82906	107.44437	59.16184	24.96588	165.30580	-72.70477	722.90680	-750.19067	-152.79459	588.27747	-452.36340	0.89943	595.59967	-428.93179	-292.51950	553.40692	420.03113	-152.68546	560.14001	443.78351	
2629	26.280	-278.20575	51.99100	-466.71390	174.60136	21.94317	-314.11472	-373.87711	19.27864	107.28760	60.37947	25.01280	165.25966	-71.62962	723.52466	-750.59387	-153.94867	588.31433	-453.37488	-0.19500	595.69659	-429.92087	-292.75537	553.91254	419.42996	-152.87033	560.58356	442.66580	
2630	26.290	-279.10342	41.61319	-466.17636	175.27081	21.63144	-314.17078	-373.38470	19.32677	107.62213	61.21005	25.21882	165.18011	-70.49545	724.06476	-750.62579	-155.08820	588.24561	-454.29816	-1.17703	595.63824	-431.06085	-293.11905	554.33575	418.70288	-153.05092	561.02301	441.88651	
2631	26.300	-279.33844	30.89891	-466.25110	175.89769	21.35780	-314.46057	-372.01114	18.92885	107.48738	61.52435	25.12298	164.85962	-69.06654	724.56268	-751.06763	-156.03560	588.20709	-455.24097	-2.04155	595.75781	-432.09793	-293.61652	554.58466	417.72406	-153.69485	561.30682	440.60864	
2632	26.310	-277.68680	18.93750	-466.47461	177.65356	21.79861	-314.04184	-371.69904	19.01502	107.44898	62.23197	25.12845	164.54817	-67.66266	724.57770	-751.12531	-156.85329	588.13452	-456.40302	-3.20075	595.69757	-433.39240	-294.59369	554.92816	416.48892	-154.50899	561.72546	439.59604	
2633	26.320	-276.85815	14.98959	-469.14771	178.22101	21.62494	-314.03674	-371.39590	19.11257	107.18637	63.18346	25.47582	164.49596	-66.42993	724.71393	-751.52686	-157.78169	588.52155	-457.71198	-3.90504	595.81073	-434.55273	-295.56595	555.21802	415.09647	-155.55440	561.95636	438.28683	
2634	26.330	-278.00418	14.69679	-467.15018	178.12212	21.55205	-315.77310	-370.74124	18.25982	106.77238	63.21646	26.09492	163.85614	-65.36613	724.89771	-751.84137	-158.55623	589.96991	-458.85394	-4.76343	596.76257	-435.73395	-296.95590	555.36188	413.69525	-157.04672	561.78937	436.96127	
2635	26.340	-277.89417	14.74758	-467.43213	177.30373	22.50358	-316.01535	-371.68726	17.80478	106.47781	62.47767	27.02909	163.29630	-64.88464	725.07269	-752.01782	-159.18916	591.60272	-460.02115	-5.62691	597.69220	-437.03558	-297.98364	555.64813	412.46100	-158.11760	561.19836	435.65369	
2636	26.350	-277.21057	14.78256	-467.33246	178.84912	23.00035	-315.82391	-371.57251	17.45012	106.21240	61.95457	27.45631	163.60968	-64.34034	725.42480	-752.17908	-159.88411	593.21735	-461.55927	-5.84371	598.15240	-437.93423	-299.45981	556.00842	410.81055	-159.14662	560.68005	434.59802	
2637	26.360	-276.24139	14.73298	-467.90970	179.47336	22.65355	-315.78333	-370.42969	17.38477	105.88928	62.03305	27.71978	163.96042	-64.04383	725.59290	-752.17932	-160.09212	594.24548	-462.63000	-6.25797	598.63910	-439.15402	-300.77997	556.53778	409.52798	-160.89561	560.81396	432.94000	
2638	26.370	-275.59818	14.32387	-468.04895	180.51141	22.76844	-315.47992	-369.98285	17.37178	105.86180	62.25614	27.75973	163.58199	-63.48819	725.75610	-752.28302	-160.34859	595.15912	-463.87534	-6.08039	598.83777	-440.19421	-302.02673	558.07446	408.68314	-162.25378	561.30957	431.72034	
2639	26.380	-274.73325	13.72765	-468.20032	180.68576	22.20512	-315.76929	-369.70670	17.24290	105.66946	62.83194	27.70492	163.43431	-62.35654	725.99615	-752.38879	-159.92972	595.51819	-465.12283	-6.02782	599.06506	-441.22705	-302.63751	558.03925	406.78192	-162.69403	561.45612	430.55490	
2640	26.390	-273.64221	12.97886	-468.45563	181.39183	22.08850	-315.84329	-369.35263	17.41878	105.39639	63.36541	27.89398	163.41255	-61.65698	726.11603	-752.39728	-159.64401	595.96344	-466.34000	-5.96357	599.23767	-442.51300	-303.24512	558.62292	405.41290	-163.31538	561.89514	429.28912	
2641	26.400	-273.28229	12.86772	-468.59409	181.94849	21.85993	-315.93820	-368.29437	17.41607	105.17934	63.96848	28.04586	163.34349	-61.28442	726.13019	-752.54633	-159.35095	596.39966	-467.60071	-5.32675	599.42719	-443.43506	-303.53204	559.21393	403.81229	-163.64209	562.56787	427.99524	
2642	26.410	-273.42310	12.92602	-468.70416	182.29326	21.82320	-315.99707	-367.90292	17.64985	104.85570	64.39476	28.33152	162.99837	-61.00397	726.06506	-752.99139	-159.09221	596.58124	-469.05838	-5.32908	599.56671	-444.85168	-303.75998	559.90649	402.64807	-163.97699	563.19135	426.70126	
2643	26.420	-272.77692	12.50740	-468.97156	182.90108	21.36362	-316.25186	-367.61212	17.55742	104.77430	65.13219	28.47601	162.70918	-61.36660	725.96313	-753.53192	-158.48694	596.39526	-470.35678	-4.71756	599.66364	-445.79712	-303.61816	560.55280	401.27820	-163.90352	563.66211	425.32693	
2644	26.430	-272.23227	12.14897	-469.11673	183.35345	21.30699	-316.21823	-367.18930	17.57416	104.68046	65.42175	28.42550	162.62259	-61.58530	725.68085	-753.95105	-158.07155	596.27344	-471.59888	-4.27677	599.52808	-447.30423	-303.53259	561.46747	400.35382	-163.64388	564.52448	424.15717	
2645	26.440	-271.84464	12.16376	-469.33252	183.98718	21.02935	-316.53290	-366.40591	17.44368	104.68641	66.00043	28.40143	162.42177	-61.92892	725.62561	-754.38763	-157.66785	596.27893	-473.00299	-3.92054	599.52002	-448.54678	-302.78821	561.64270	398.73358	-163.20522	565.12531	422.97186	
2646	26.450	-271.32590	11.97981	-469.51675	183.75400	20.49052	-316.94403	-365.83856	17.65694	104.43189	66.36401	28.48481	162.42471	-62.56926	725.48578	-754.91913	-157.22588	596.18280	-474.06393	-3.42564	599.60693	-449.70337	-301.87296	561.94666	397.55588	-162.19223	565.60669	421.59116	
2647	26.460	-271.06018	11.64929	-469.54715	184.15053	20.29652	-317.14221	-365.61081	17.98911	104.31096	67.42045	28.55159	162.24561	-62.81009	725.40253	-755.25348	-156.87254	596.10370	-475.36462	-2.94296	599.49664	-451.16544	-300.90192	562.68439	396.40787	-161.23126	566.16205	420.57813	
2648	26.470	-270.90634	11.37096	-469.62161	184.38345	19.94235	-317.50201	-365.19299	18.03338	104.33253	67.73580	28.35373	162.04396	-62.78239	725.25964	-755.50897	-156.63608	595.68768	-476.52179	-2.88955	599.47656	-452.79175	-300.08636	563.10248	395.36166	-159.99408	566.52704	419.19162	
2649	26.480	-270.63232	10.92868	-469.62454	184.78114	19.68462	-317.85715	-364.59070	17.89445	104.36069	68.14984	28.21702	161.79564	-62.56796	725.08301	-756.04095	-156.47668	595.75610	-477.79169	-2.22475	599.16901	-453.89282	-298.68008	563.61963	394.56070	-158.85210	566.94519	418.00061	
2650	26.490	-270.31851	10.53133	-469.74603	185.00568	19.61255	-317.96429	-363.95193	18.04706	104.36691	68.46732	27.99804	161.46121	-61.99969	724.86853	-756.39099	-156.05368	595.49951	-479.15805	-2.43838	599.11176	-455.45587	-297.15842	563.78497	393.24734	-157.28058	567.35193	416.89963	
2651	26.500	-270.16003	10.40115	-469.83493	185.85280	20.07541	-317.96143	-363.79156	18.25205	104.19970	69.27260	28.12822	161.20575	-61.38594	724.79364	-756.63910	-155.78941	595.26038	-480.00159	-1.87913	598.86353	-456.87463	-295.99728	564.56085	392.75327	-155.92879	567.77368	415.62000	
2652	26.510	-269.97522	10.33160	-469.97928	186.11819	19.94975	-318.04355	-363.42715	18.83402	103.94458	70.09786	28.30880	161.21680	-60.42345	724.83813	-756.76038	-155.61380	595.38177	-482.11154	-1.34874	598.69696	-458.07745	-294.55414	564.94733	391.88132	-154.36835	568.16144	414.75940	
2653	26.520	-269.67731	9.87891	-470.08847	186.60124	19.77150	-318.00876	-363.26254	18.88799	103.88894	69.93748	28.24975	161.21008	-59.44799	724.84247	-757.07642	-154.88774	595.00513	-482.43112	-0.89460	598.42102	-459.37231	-293.38858	565.32935	390.65280	-153.33977	568.29675	413.53220	
2654	26.530	-269.45227	9.40996	-470.14075	186.67932	19.07170	-318.62311	-363.07034	18.89684	103.74908	70.28129	28.19328	161.08777	-58.63118	724.81531	-757.13916	-153.87306	594.60425	-483.59210	0.04457	598.03156	-460.53845	-292.29120	565.48938	389.71552	-152.32541	568.25092	412.18887	
2655	26.540	-269.09079	9.03010	-470.31888	186.89894	18.75078	-318.75186	-362.82687	18.84326	103.53194	70.29306	28.14119	160.85704	-57.75168	724.75092	-757.26880	-152.92227	594.46875	-484.80640	0.95819	597.77563	-461.68024	-291.25305	565.72449	388.54886	-151.22450	568.43268	411.34091	
2656	26.550	-269.00302	8.91743	-470.58945	187.15157	18.49701	-318.88400	-362.56958	18.83336	103.27345	70.38790	28.20255	160.78903	-56.83398	724.68500	-757.25629	-151.97597	594.72583	-485.93692	2.19375	597.49213	-462.63818	-290.31467	565.84344	387.46021	-150.18584	568.50690	409.98944	
2657	26.560	-268.59540	8.66443	-470.73386	187.33603	18.43408	-318.81308	-362.60040	19.03374	103.05804	70.52248	28.38872	160.73677	-56.02214	724.63953	-757.42993	-150.64801	594.71899	-486.78586	3.36388	597.46198	-463.73624	-289.82266	566.18561	386.47189	-149.63643	568.72113	409.13562	
2658	26.570	-268.40399	8.62591	-470.88547	187.44272	18.19938	-318.81421	-362.62387	19.19958	102.91156	70.57452	28.44829	160.76381	-55.48197	724.73315	-757.57184	-149.30122	594.76422	-488.05219	4.89650	597.49591	-464.62988	-289.05206	566.26117	384.55548	-148.99245	568.72113	407.90665	
2659	26.580	-268.55930	8.76192	-471.12637	187.76202	17.89209	-318.73245	-362.56332	19.16430	102.78941	70.55088	28.48993	160.71045	-54.90516	724.54492	-757.48053	-147.72212	594.85992	-489.11349	6.22374	597.41583	-465.58902	-288.35703	566.54480	383.87704	-148.61075	568.79614	406.79657	
2660	26.590	-268.23422	8.52684	-471.41519	187.99239	17.84867	-319.01785	-362.35355	19.04419	102.57789	70.45439	28.76767	160.37955	-54.46880	724.19672	-757.64575	-146.20773	594.67841	-490.06339	7.59225	597.18768	-466.49127	-287.49704	566.65063	382.73203	-147.68727	568.74506	405.99847	
2661	26.600	-268.06656	8.25592	-471.48734	187.34134	16.95864	-319.05011	-362.46313	19.25496	102.43722	70.35817	29.06206	160.27539	-53.57394	723.57806	-757.81903	-145.01901	594.53455	-490.96652	8.95069	596.84064	-467.26471	-286.83704	566.50696	381.38403	-146.92111	568.81268	404.85229	
2662	26.610	-267.99750	8.05318	-471.53088	187.27704	16.63788	-319.40002	-362.44266	19.35823	102.29514	70.45110	29.18092	160.26221	-52.37019	722.26892	-758.46338	-144.04082	594.37543	-491.75848	9.81999	596.47198	-468.08273	-285.51468	566.31189	380.81888	-145.55949	568.60767	404.30673	
2663	26.620	-267.80750	7.79720	-471.53787	187.11908	16.62811	-319.43716	-362.44000	19.45942	102.30111	70.61852	29.09776	160.24472	-50.06269	720.41559	-759.56958	-143.23747	594.39099	-492.28110	10.87831	596.33502	-468.85757	-284.31552	566.17242	380.70660	-144.21210	568.05304	403.76639	
